<!-- 해당일 아님 : #ebedf0 -->
<!-- 커밋 성공 : #008000 --> <!-- green -->
<!-- 커밋 실패 : #800000 --> <!-- Maroon -->
<svg xmlns="http://www.w3.org/2000/svg" viewBox="0 0 385 11" width="385" height="32">
    <g>
        <rect class="day" x="5" y="-8" width="11" height="11" fill="#008000" rx="2" ry="2"/> <!-- 1 -->
  
        <rect class="day" x="5" y="8" width="11" height="11" fill="#ebedf0" rx="2" ry="2"/> <!-- 26 -->

        <rect class="day" x="20" y="-8" width="11" height="11" fill="#008000" rx="2" ry="2"/> <!-- 2 -->
  
        <rect class="day" x="20" y="8" width="11" height="11" fill="#ebedf0" rx="2" ry="2"/> <!-- 27 -->

        <rect class="day" x="35" y="-8" width="11" height="11" fill="#008000" rx="2" ry="2"/> <!-- 3 -->
  
        <rect class="day" x="35" y="8" width="11" height="11" fill="#ebedf0" rx="2" ry="2"/> <!-- 28 -->

        <rect class="day" x="50" y="-8" width="11" height="11" fill="#008000" rx="2" ry="2"/> <!-- 4 -->
  
        <rect class="day" x="50" y="8" width="11" height="11" fill="#ebedf0" rx="2" ry="2"/> <!-- 29 -->

        <rect class="day" x="65" y="-8" width="11" height="11" fill="#008000" rx="2" ry="2"/> <!-- 5 -->
  
        <rect class="day" x="65" y="8" width="11" height="11" fill="#ebedf0" rx="2" ry="2"/> <!-- 30 -->

        <rect class="day" x="80" y="-8" width="11" height="11" fill="#008000" rx="2" ry="2"/> <!-- 6 -->
  
        <rect class="day" x="80" y="8" width="11" height="11" fill="#ebedf0" rx="2" ry="2"/> <!-- 31 -->

        <rect class="day" x="95" y="-8" width="11" height="11" fill="#008000" rx="2" ry="2"/> <!-- 7 -->
  
        <rect class="day" x="95" y="8" width="11" height="11" fill="#ebedf0" rx="2" ry="2"/> <!-- 32 -->

        <rect class="day" x="110" y="-8" width="11" height="11" fill="#800000" rx="2" ry="2"/> <!-- 8 -->
  
        <rect class="day" x="110" y="8" width="11" height="11" fill="#ebedf0" rx="2" ry="2"/> <!-- 33 -->

        <rect class="day" x="125" y="-8" width="11" height="11" fill="#ebedf0" rx="2" ry="2"/> <!-- 9 -->
  
        <rect class="day" x="125" y="8" width="11" height="11" fill="#ebedf0" rx="2" ry="2"/> <!-- 34 -->

        <rect class="day" x="140" y="-8" width="11" height="11" fill="#ebedf0" rx="2" ry="2"/> <!-- 10 -->
  
        <rect class="day" x="140" y="8" width="11" height="11" fill="#ebedf0" rx="2" ry="2"/> <!-- 35 -->

        <rect class="day" x="155" y="-8" width="11" height="11" fill="#ebedf0" rx="2" ry="2"/> <!-- 11 -->
  
        <rect class="day" x="155" y="8" width="11" height="11" fill="#ebedf0" rx="2" ry="2"/> <!-- 36 -->

        <rect class="day" x="170" y="-8" width="11" height="11" fill="#ebedf0" rx="2" ry="2"/> <!-- 12 -->
  
        <rect class="day" x="170" y="8" width="11" height="11" fill="#ebedf0" rx="2" ry="2"/> <!-- 37 -->

        <rect class="day" x="185" y="-8" width="11" height="11" fill="#ebedf0" rx="2" ry="2"/> <!-- 13 -->
  
        <rect class="day" x="185" y="8" width="11" height="11" fill="#ebedf0" rx="2" ry="2"/> <!-- 38 -->

        <rect class="day" x="200" y="-8" width="11" height="11" fill="#ebedf0" rx="2" ry="2"/> <!-- 14 -->
  
        <rect class="day" x="200" y="8" width="11" height="11" fill="#ebedf0" rx="2" ry="2"/> <!-- 39 -->

        <rect class="day" x="215" y="-8" width="11" height="11" fill="#ebedf0" rx="2" ry="2"/> <!-- 15 -->
  
        <rect class="day" x="215" y="8" width="11" height="11" fill="#ebedf0" rx="2" ry="2"/> <!-- 40 -->

        <rect class="day" x="230" y="-8" width="11" height="11" fill="#ebedf0" rx="2" ry="2"/> <!-- 16 -->
  
        <rect class="day" x="230" y="8" width="11" height="11" fill="#ebedf0" rx="2" ry="2"/> <!-- 41 -->

        <rect class="day" x="245" y="-8" width="11" height="11" fill="#ebedf0" rx="2" ry="2"/> <!-- 17 -->
  
        <rect class="day" x="245" y="8" width="11" height="11" fill="#ebedf0" rx="2" ry="2"/> <!-- 42 -->

        <rect class="day" x="260" y="-8" width="11" height="11" fill="#ebedf0" rx="2" ry="2"/> <!-- 18 -->
  
        <rect class="day" x="260" y="8" width="11" height="11" fill="#ebedf0" rx="2" ry="2"/> <!-- 43 -->

        <rect class="day" x="275" y="-8" width="11" height="11" fill="#ebedf0" rx="2" ry="2"/> <!-- 19 -->
  
        <rect class="day" x="275" y="8" width="11" height="11" fill="#ebedf0" rx="2" ry="2"/> <!-- 44 -->

        <rect class="day" x="290" y="-8" width="11" height="11" fill="#ebedf0" rx="2" ry="2"/> <!-- 20 -->
  
        <rect class="day" x="290" y="8" width="11" height="11" fill="#ebedf0" rx="2" ry="2"/> <!-- 45 -->

        <rect class="day" x="305" y="-8" width="11" height="11" fill="#ebedf0" rx="2" ry="2"/> <!-- 21 -->
  
        <rect class="day" x="305" y="8" width="11" height="11" fill="#ebedf0" rx="2" ry="2"/> <!-- 46 -->

        <rect class="day" x="320" y="-8" width="11" height="11" fill="#ebedf0" rx="2" ry="2"/> <!-- 22 -->
  
        <rect class="day" x="320" y="8" width="11" height="11" fill="#ebedf0" rx="2" ry="2"/> <!-- 47 -->

        <rect class="day" x="335" y="-8" width="11" height="11" fill="#ebedf0" rx="2" ry="2"/> <!-- 23 -->
  
        <rect class="day" x="335" y="8" width="11" height="11" fill="#ebedf0" rx="2" ry="2"/> <!-- 48 -->

        <rect class="day" x="350" y="-8" width="11" height="11" fill="#ebedf0" rx="2" ry="2"/> <!-- 24 -->
  
        <rect class="day" x="350" y="8" width="11" height="11" fill="#ebedf0" rx="2" ry="2"/> <!-- 49 -->

        <rect class="day" x="365" y="-8" width="11" height="11" fill="#ebedf0" rx="2" ry="2"/> <!-- 25 -->
  
        <rect class="day" x="365" y="8" width="11" height="11" fill="#ebedf0" rx="2" ry="2"/> <!-- 50 -->

      
    </g>
</svg>